<svg width="245" height="59" viewBox="0 0 245 59" fill="none" xmlns="http://www.w3.org/2000/svg">
<path d="M7.97747 51.12C7.09747 51.12 6.18547 51 5.24147 50.76C4.31347 50.52 3.42547 50.192 2.57747 49.776C1.74547 49.344 1.04147 48.856 0.465469 48.312C0.833469 47.784 1.24147 47.256 1.68947 46.728C2.13747 46.184 2.63347 45.648 3.17747 45.12C3.80147 45.792 4.48947 46.416 5.24147 46.992C5.99347 47.552 6.74547 48.008 7.49747 48.36C8.26547 48.712 8.96947 48.888 9.60947 48.888C10.1855 48.888 10.6975 48.736 11.1455 48.432C11.6095 48.112 11.8415 47.656 11.8415 47.064C11.8415 46.504 11.6255 46.008 11.1935 45.576C10.7615 45.128 10.1935 44.72 9.48947 44.352C8.80147 43.968 8.06547 43.592 7.28147 43.224C6.59347 42.904 5.91347 42.568 5.24147 42.216C4.56947 41.864 3.95347 41.48 3.39347 41.064C2.84947 40.648 2.40947 40.184 2.07347 39.672C1.75347 39.144 1.59347 38.552 1.59347 37.896C1.59347 37.24 1.76147 36.6 2.09747 35.976C2.44947 35.352 2.93747 34.792 3.56147 34.296C4.18547 33.784 4.92147 33.384 5.76947 33.096C6.63347 32.792 7.57747 32.64 8.60147 32.64C9.76947 32.64 10.9455 32.84 12.1295 33.24C13.3295 33.64 14.3695 34.216 15.2495 34.968C14.9615 35.512 14.5695 36.048 14.0735 36.576C13.5935 37.104 13.1215 37.552 12.6575 37.92C11.6815 36.992 10.7135 36.216 9.75347 35.592C8.79347 34.952 7.88947 34.632 7.04147 34.632C6.41747 34.632 5.94547 34.792 5.62547 35.112C5.32147 35.416 5.16947 35.744 5.16947 36.096C5.16947 36.48 5.34547 36.832 5.69747 37.152C6.04947 37.472 6.51347 37.784 7.08947 38.088C7.66547 38.392 8.29747 38.704 8.98547 39.024C9.70547 39.36 10.4335 39.72 11.1695 40.104C11.9215 40.488 12.6095 40.928 13.2335 41.424C13.8735 41.904 14.3855 42.456 14.7695 43.08C15.1535 43.704 15.3455 44.416 15.3455 45.216C15.3455 46.016 15.1455 46.776 14.7455 47.496C14.3615 48.2 13.8255 48.824 13.1375 49.368C12.4655 49.912 11.6815 50.344 10.7855 50.664C9.90547 50.968 8.96947 51.12 7.97747 51.12ZM20.9228 53.808C20.3308 53.808 19.6588 53.792 18.9068 53.76C18.1708 53.744 17.5468 53.728 17.0348 53.712C17.0188 53.264 17.0028 52.592 16.9868 51.696C16.9868 50.8 16.9788 49.768 16.9628 48.6C16.9468 47.416 16.9308 46.184 16.9148 44.904C16.9148 43.608 16.9148 42.344 16.9148 41.112C16.9148 39.864 16.9148 38.736 16.9148 37.728C17.2668 37.712 17.6908 37.696 18.1868 37.68C18.6828 37.664 19.1868 37.656 19.6988 37.656C20.2268 37.64 20.6748 37.632 21.0428 37.632C21.0428 37.888 21.0428 38.152 21.0428 38.424C22.0028 37.768 23.0108 37.44 24.0668 37.44C25.0908 37.44 26.0028 37.728 26.8028 38.304C27.6028 38.88 28.2348 39.672 28.6988 40.68C29.1628 41.672 29.3948 42.808 29.3948 44.088C29.3948 45.384 29.1468 46.568 28.6508 47.64C28.1708 48.696 27.5148 49.544 26.6828 50.184C25.8668 50.808 24.9468 51.12 23.9228 51.12C22.9948 51.12 22.0108 50.848 20.9708 50.304C20.9708 51.088 20.9628 51.784 20.9468 52.392C20.9468 53 20.9388 53.472 20.9228 53.808ZM22.9628 39.408C22.2748 39.408 21.6348 39.8 21.0428 40.584C21.0428 41.688 21.0348 42.84 21.0188 44.04C21.0188 45.224 21.0108 46.376 20.9948 47.496C21.2668 48.024 21.6108 48.44 22.0268 48.744C22.4428 49.048 22.8908 49.2 23.3708 49.2C24.1228 49.2 24.7068 48.816 25.1228 48.048C25.5548 47.28 25.7708 46.216 25.7708 44.856C25.7708 43.816 25.6428 42.888 25.3868 42.072C25.1468 41.24 24.8188 40.592 24.4028 40.128C23.9868 39.648 23.5068 39.408 22.9628 39.408ZM31.3295 36V32.76H35.4095V36H31.3295ZM31.4255 51.048C31.4095 50.52 31.3935 49.808 31.3775 48.912C31.3615 48 31.3455 46.96 31.3295 45.792C31.3295 44.608 31.3215 43.344 31.3055 42C31.3055 40.656 31.3055 39.28 31.3055 37.872C32.0255 37.872 32.7775 37.88 33.5615 37.896C34.3615 37.912 34.9855 37.936 35.4335 37.968C35.4335 39.136 35.4255 40.36 35.4095 41.64C35.4095 42.92 35.4015 44.168 35.3855 45.384C35.3855 46.584 35.3775 47.672 35.3615 48.648C35.3455 49.624 35.3295 50.392 35.3135 50.952C34.5775 50.984 33.8735 51.008 33.2015 51.024C32.5295 51.04 31.9375 51.048 31.4255 51.048ZM44.3485 51.12C43.4045 51.12 42.5085 50.944 41.6605 50.592C40.8285 50.224 40.0845 49.728 39.4285 49.104C38.7885 48.48 38.2845 47.76 37.9165 46.944C37.5485 46.112 37.3645 45.24 37.3645 44.328C37.3645 43.384 37.5485 42.504 37.9165 41.688C38.3005 40.856 38.8285 40.12 39.5005 39.48C40.1725 38.84 40.9405 38.344 41.8045 37.992C42.6845 37.624 43.6205 37.44 44.6125 37.44C46.6925 37.44 48.6765 38.304 50.5645 40.032L48.2845 42.528C47.7725 41.584 47.1165 40.824 46.3165 40.248C45.5325 39.656 44.7565 39.36 43.9885 39.36C43.1565 39.36 42.4845 39.712 41.9725 40.416C41.4765 41.12 41.2285 42.064 41.2285 43.248C41.2285 44.32 41.4125 45.304 41.7805 46.2C42.1645 47.096 42.6765 47.816 43.3165 48.36C43.9565 48.888 44.6525 49.152 45.4045 49.152C46.0605 49.152 46.7085 48.944 47.3485 48.528C48.0045 48.112 48.5485 47.552 48.9805 46.848L50.4445 48.288C48.5565 50.176 46.5245 51.12 44.3485 51.12ZM52.7208 54.168L52.4808 51.912C53.3288 51.864 54.0888 51.752 54.7608 51.576C55.4488 51.416 56.0728 51.16 56.6328 50.808C55.9608 49.464 55.2808 48.032 54.5928 46.512C53.9048 44.992 53.2488 43.496 52.6248 42.024C52.0168 40.536 51.4888 39.176 51.0408 37.944C51.6168 37.848 52.3368 37.752 53.2008 37.656C54.0648 37.56 54.9128 37.48 55.7448 37.416C56.1448 38.648 56.6728 40.128 57.3288 41.856C57.9848 43.584 58.6968 45.4 59.4648 47.304C59.9928 46.232 60.4968 44.896 60.9768 43.296C61.4568 41.696 61.9768 39.768 62.5368 37.512L65.4408 37.848C64.6568 40.728 63.8328 43.192 62.9688 45.24C62.1208 47.272 61.1928 48.936 60.1848 50.232C59.1928 51.528 58.0808 52.488 56.8488 53.112C55.6168 53.736 54.2408 54.088 52.7208 54.168ZM82.229 47.256C81.813 47.256 81.381 47.256 80.933 47.256C80.501 47.24 80.053 47.216 79.589 47.184C79.237 48.432 78.885 49.736 78.533 51.096L75.653 50.904C76.549 47.88 77.549 44.832 78.653 41.76C79.757 38.672 80.933 35.672 82.181 32.76C82.773 32.696 83.429 32.64 84.149 32.592C84.885 32.544 85.637 32.52 86.405 32.52C87.381 34.888 88.421 37.624 89.525 40.728C90.629 43.832 91.765 47.176 92.933 50.76C92.005 50.92 91.125 51.04 90.293 51.12C89.477 51.2 88.645 51.24 87.797 51.24C87.461 49.896 87.085 48.48 86.669 46.992C85.245 47.168 83.765 47.256 82.229 47.256ZM83.165 35.328C82.829 36.24 82.405 37.504 81.893 39.12C81.397 40.736 80.845 42.632 80.237 44.808C80.877 44.888 81.533 44.944 82.205 44.976C82.893 45.008 83.629 45.024 84.413 45.024C84.701 45.024 84.989 45.024 85.277 45.024C85.581 45.008 85.861 45 86.117 45C85.765 43.72 85.405 42.48 85.037 41.28C84.685 40.064 84.349 38.952 84.029 37.944C83.709 36.92 83.421 36.048 83.165 35.328ZM96.9151 51.216C96.0031 49.104 95.0831 46.896 94.1551 44.592C93.2431 42.288 92.3951 40.072 91.6111 37.944C92.5711 37.8 93.4511 37.688 94.2511 37.608C95.0511 37.512 95.7391 37.448 96.3151 37.416C96.7791 39.144 97.3151 40.936 97.9231 42.792C98.5311 44.632 99.1871 46.456 99.8911 48.264C100.611 46.504 101.275 44.704 101.883 42.864C102.491 41.024 103.019 39.24 103.467 37.512L106.011 37.848C105.179 40.168 104.315 42.448 103.419 44.688C102.523 46.912 101.619 49.024 100.707 51.024C100.099 51.088 99.4591 51.136 98.7871 51.168C98.1311 51.2 97.5071 51.216 96.9151 51.216ZM113.015 51.12C111.751 51.12 110.607 50.824 109.583 50.232C108.559 49.64 107.743 48.84 107.135 47.832C106.543 46.824 106.247 45.704 106.247 44.472C106.247 43.496 106.431 42.584 106.799 41.736C107.167 40.888 107.679 40.144 108.335 39.504C109.007 38.848 109.775 38.344 110.639 37.992C111.503 37.624 112.423 37.44 113.399 37.44C114.663 37.44 115.807 37.736 116.831 38.328C117.855 38.92 118.663 39.72 119.255 40.728C119.863 41.72 120.167 42.84 120.167 44.088C120.167 45.064 119.983 45.976 119.615 46.824C119.247 47.672 118.727 48.424 118.055 49.08C117.399 49.72 116.639 50.224 115.775 50.592C114.927 50.944 114.007 51.12 113.015 51.12ZM113.711 49.176C114.559 49.176 115.223 48.816 115.703 48.096C116.183 47.36 116.423 46.344 116.423 45.048C116.423 43.96 116.263 42.992 115.943 42.144C115.623 41.296 115.183 40.624 114.623 40.128C114.063 39.632 113.423 39.384 112.703 39.384C111.855 39.384 111.191 39.752 110.711 40.488C110.231 41.208 109.991 42.216 109.991 43.512C109.991 44.584 110.151 45.552 110.471 46.416C110.791 47.264 111.231 47.936 111.791 48.432C112.367 48.928 113.007 49.176 113.711 49.176ZM128.583 51.12C127.639 51.12 126.743 50.944 125.895 50.592C125.063 50.224 124.319 49.728 123.663 49.104C123.023 48.48 122.519 47.76 122.151 46.944C121.783 46.112 121.599 45.24 121.599 44.328C121.599 43.384 121.783 42.504 122.151 41.688C122.535 40.856 123.063 40.12 123.735 39.48C124.407 38.84 125.175 38.344 126.039 37.992C126.919 37.624 127.855 37.44 128.847 37.44C130.927 37.44 132.911 38.304 134.799 40.032L132.519 42.528C132.007 41.584 131.351 40.824 130.551 40.248C129.767 39.656 128.991 39.36 128.223 39.36C127.391 39.36 126.719 39.712 126.207 40.416C125.711 41.12 125.463 42.064 125.463 43.248C125.463 44.32 125.647 45.304 126.015 46.2C126.399 47.096 126.911 47.816 127.551 48.36C128.191 48.888 128.887 49.152 129.639 49.152C130.295 49.152 130.943 48.944 131.583 48.528C132.239 48.112 132.783 47.552 133.215 46.848L134.679 48.288C132.791 50.176 130.759 51.12 128.583 51.12ZM140.363 51.12C139.003 51.12 137.891 50.792 137.027 50.136C136.179 49.464 135.755 48.592 135.755 47.52C135.755 46.544 136.107 45.64 136.811 44.808C137.531 43.976 138.523 43.272 139.787 42.696C141.051 42.104 142.499 41.696 144.131 41.472C143.555 40.064 142.763 39.36 141.755 39.36C141.147 39.36 140.363 39.592 139.403 40.056C138.443 40.52 137.467 41.128 136.475 41.88L135.755 39.48C138.139 38.12 140.395 37.44 142.523 37.44C144.187 37.44 145.523 37.896 146.531 38.808C147.539 39.704 148.275 41.144 148.739 43.128C149.203 45.096 149.435 47.704 149.435 50.952C149.131 50.968 148.587 50.984 147.803 51C147.035 51.032 146.203 51.048 145.307 51.048C145.307 50.536 145.299 50.032 145.283 49.536C143.635 50.592 141.995 51.12 140.363 51.12ZM139.715 47.352C139.715 47.848 139.907 48.24 140.291 48.528C140.691 48.816 141.219 48.96 141.875 48.96C143.027 48.96 144.139 48.464 145.211 47.472C145.115 45.776 144.931 44.344 144.659 43.176C144.035 43.304 143.427 43.512 142.835 43.8C142.259 44.088 141.731 44.432 141.251 44.832C140.787 45.216 140.411 45.632 140.123 46.08C139.851 46.512 139.715 46.936 139.715 47.352ZM156.2 51.12C155.192 51.12 154.28 50.832 153.464 50.256C152.664 49.68 152.032 48.888 151.568 47.88C151.104 46.872 150.872 45.736 150.872 44.472C150.872 43.16 151.112 41.976 151.592 40.92C152.088 39.864 152.752 39.024 153.584 38.4C154.416 37.76 155.336 37.44 156.344 37.44C157.256 37.44 158.216 37.704 159.224 38.232C159.224 36.104 159.224 34.304 159.224 32.832C159.592 32.832 160.024 32.84 160.52 32.856C161.032 32.856 161.544 32.864 162.056 32.88C162.568 32.896 163 32.912 163.352 32.928C163.352 33.744 163.352 34.72 163.352 35.856C163.352 36.976 163.344 38.176 163.328 39.456C163.328 40.736 163.32 42.008 163.304 43.272C163.304 44.52 163.296 45.688 163.28 46.776C163.28 47.864 163.272 48.784 163.256 49.536C163.256 50.288 163.248 50.792 163.232 51.048C162.544 51.048 161.84 51.032 161.12 51C160.4 50.984 159.808 50.968 159.344 50.952C159.344 50.744 159.336 50.448 159.32 50.064C158.328 50.768 157.288 51.12 156.2 51.12ZM154.496 43.704C154.496 44.744 154.616 45.68 154.856 46.512C155.112 47.328 155.448 47.976 155.864 48.456C156.296 48.92 156.776 49.152 157.304 49.152C158.024 49.152 158.688 48.728 159.296 47.88C159.28 46.936 159.264 45.872 159.248 44.688C159.248 43.488 159.248 42.272 159.248 41.04C158.976 40.512 158.632 40.104 158.216 39.816C157.816 39.512 157.376 39.36 156.896 39.36C156.144 39.36 155.552 39.744 155.12 40.512C154.704 41.264 154.496 42.328 154.496 43.704ZM172.031 51.12C170.767 51.12 169.623 50.824 168.599 50.232C167.575 49.64 166.759 48.84 166.151 47.832C165.559 46.824 165.263 45.704 165.263 44.472C165.263 43.496 165.447 42.584 165.815 41.736C166.183 40.888 166.695 40.144 167.351 39.504C168.023 38.848 168.791 38.344 169.655 37.992C170.519 37.624 171.439 37.44 172.415 37.44C173.679 37.44 174.823 37.736 175.847 38.328C176.871 38.92 177.679 39.72 178.271 40.728C178.879 41.72 179.183 42.84 179.183 44.088C179.183 45.064 178.999 45.976 178.631 46.824C178.263 47.672 177.743 48.424 177.071 49.08C176.415 49.72 175.655 50.224 174.791 50.592C173.943 50.944 173.023 51.12 172.031 51.12ZM172.727 49.176C173.575 49.176 174.239 48.816 174.719 48.096C175.199 47.36 175.439 46.344 175.439 45.048C175.439 43.96 175.279 42.992 174.959 42.144C174.639 41.296 174.199 40.624 173.639 40.128C173.079 39.632 172.439 39.384 171.719 39.384C170.871 39.384 170.207 39.752 169.727 40.488C169.247 41.208 169.007 42.216 169.007 43.512C169.007 44.584 169.167 45.552 169.487 46.416C169.807 47.264 170.247 47.936 170.807 48.432C171.383 48.928 172.023 49.176 172.727 49.176Z" fill="#33303E"/>
<g clip-path="url(#clip0)">
<path fill-rule="evenodd" clip-rule="evenodd" d="M228.162 27.1502C229.112 28.1361 230.034 29.2657 230.856 30.5543C233.633 34.9769 234.205 40.0842 233.323 44.3446C232.493 48.3107 230.546 51.0755 229.009 52.6921C227.456 54.3255 226.31 54.9262 226.31 54.9262C226.31 54.9262 227.029 53.8006 227.73 51.8119C228.44 49.798 229.027 47.0227 228.72 43.9622C228.404 40.719 227.109 37.468 225.102 34.9184C224.508 34.1428 223.802 33.3877 223.046 32.6066C222.779 32.3305 222.505 32.0506 222.224 31.7626C221.141 30.6682 219.924 29.4852 218.731 28.1609C217.478 26.7857 216.31 25.2571 215.344 23.5541C214.303 21.7385 213.629 19.7581 213.386 17.7796C213.092 15.2181 213.625 12.9803 214.389 11.325C215.198 9.5787 216.267 8.45016 217.003 7.81092C217.759 7.15426 218.241 6.90613 218.241 6.90613C218.241 6.90613 217.934 7.37529 217.557 8.26106C217.183 9.14236 216.761 10.4479 216.692 12.0047C216.624 13.4739 216.878 15.1255 217.591 16.6316C218.128 17.8023 218.951 18.866 219.959 19.9418C220.926 20.9636 222.045 21.8891 223.289 22.9046C224.504 23.8883 225.827 24.9253 227.142 26.153V26.153C227.486 26.4707 227.826 26.8025 228.162 27.1502Z" fill="#FF2A2A"/>
<path fill-rule="evenodd" clip-rule="evenodd" d="M207.981 34.7928C208.53 34.2261 209.039 33.6987 209.461 33.1736C210.888 31.4673 211.957 29.2321 212.342 26.8966C212.715 24.684 212.43 22.5868 211.995 21.0095C211.567 19.4591 211.074 18.5432 211.074 18.5432C211.074 18.5432 211.993 18.9342 213.274 20.1293C214.538 21.3097 216.179 23.3957 216.945 26.5142C217.758 29.8659 217.412 33.9594 215.215 37.5377C214.565 38.576 213.84 39.4775 213.096 40.2492C212.834 40.5213 212.568 40.7789 212.3 41.0233H212.3C211.276 41.9694 210.26 42.7379 209.337 43.4416C208.394 44.1682 207.555 44.7949 206.821 45.4873C206.061 46.213 205.42 46.9072 204.977 47.6967C204.385 48.7098 204.1 49.8904 204.065 50.9808C204.027 52.1381 204.271 53.1473 204.509 53.8451C204.748 54.5441 204.96 54.9262 204.96 54.9262C204.96 54.9262 204.574 54.7652 203.955 54.2952C203.354 53.8386 202.465 53.0082 201.763 51.6606C201.099 50.3833 200.599 48.6178 200.772 46.5487C200.92 44.9516 201.413 43.3403 202.206 41.875C202.938 40.502 203.828 39.271 204.779 38.1854C205.681 37.1407 206.589 36.2267 207.382 35.4137H207.382C207.587 35.1998 207.788 34.9926 207.981 34.7928Z" fill="#FF2A2A"/>
<path fill-rule="evenodd" clip-rule="evenodd" d="M225.697 29.5419C226.338 30.2064 226.964 30.9938 227.529 31.9069C229.435 35.0629 229.669 38.6493 228.889 41.5464C228.155 44.2413 226.668 45.9868 225.539 46.9496C224.396 47.9254 223.589 48.2114 223.589 48.2114C223.589 48.2114 223.97 47.4005 224.26 46.0694C224.558 44.7104 224.693 42.9523 224.286 41.164C223.867 39.2819 222.911 37.5562 221.774 36.2711C221.438 35.8716 221.027 35.4575 220.582 34.9983C220.425 34.836 220.262 34.6665 220.095 34.489C219.447 33.8168 218.693 33.0373 217.937 32.1326C217.138 31.1917 216.386 30.1097 215.771 28.9018C215.102 27.6115 214.701 26.185 214.599 24.7787C214.488 22.9558 214.971 21.4267 215.584 20.3385C216.232 19.19 217.032 18.5093 217.565 18.1438C218.115 17.7671 218.454 17.6498 218.454 17.6498C218.454 17.6498 218.29 17.9883 218.119 18.5939C217.949 19.1997 217.794 20.061 217.886 21.0183C217.972 21.9189 218.273 22.8645 218.805 23.6307C219.201 24.2295 219.749 24.7387 220.386 25.2895C221.004 25.8177 221.702 26.2936 222.495 26.8763C223.272 27.44 224.134 28.0742 225.013 28.8794C225.243 29.0871 225.472 29.3076 225.697 29.5419Z" fill="#FF2A2A"/>
</g>
<g clip-path="url(#clip1)">
<path d="M205.098 27.4411C203.774 27.6788 202.409 27.8037 201.166 28.3578C198.345 29.2343 195.655 30.8793 193.819 33.2149C191.686 35.5243 191.626 38.8236 190.885 41.7135C190.707 42.329 190.662 43.0061 190.276 43.5425V44.0629C191.562 46.1233 192.282 48.5264 193.882 50.3856C197.632 54.6788 203.049 57.3478 208.588 58.4676C209.63 58.7923 210.737 58.8441 211.812 58.9991H214.126C215.16 58.8923 216.198 58.7404 217.206 58.4787C225.032 56.7287 232.635 53.6245 239.268 49.0974C241.278 47.8258 242.735 45.9536 244.398 44.3048V43.8413C243.949 42.3345 243.66 40.724 242.624 39.4722C241.629 37.5852 239.444 37.1161 237.684 36.234C235.552 35.0865 232.939 36.0513 230.633 35.4624C226.376 34.792 222.434 32.9956 218.526 31.268C215.973 30.2989 213.579 28.8723 210.87 28.3429C209.675 27.9734 208.452 27.6925 207.228 27.4409H205.098L205.098 27.4411ZM208.707 30.0725C209.176 30.0817 209.64 30.2362 210.065 30.4426C210.546 30.8523 211.372 30.9109 211.796 30.9904C211.907 31.0645 212.002 31.1602 212.087 31.2628C212.996 31.4719 213.836 32.0599 214.816 32.0854C215.021 32.3878 215.296 32.627 215.709 32.529C217.241 33.4603 219.024 34.1287 220.734 34.8552C224.883 36.9619 229.59 37.5558 234.186 37.6304C236.056 37.8076 238.046 37.4835 239.818 38.2594C240.078 38.365 240.347 38.5854 240.408 38.865C240.629 39.0033 240.827 39.1755 241.011 39.3588C241.536 39.5545 241.828 40.1928 242.004 40.71C242.155 41.131 242.77 41.5804 242.393 42.0236C241.537 43.0297 241.082 44.5989 239.636 44.9118C238.112 45.3809 236.587 45.9056 234.994 46.0896C231.663 46.9229 227.747 47.4815 224.075 47.5118C222.297 47.755 220.268 47.7031 218.81 48.9037C216.453 51.1173 213.888 53.9777 210.319 53.6691C207.62 53.1821 204.92 52.1068 202.882 50.2358C199.916 48.7303 197.406 46.3717 195.146 43.955C193.335 42.0631 193.361 39.1286 194.279 36.9477C195.415 33.9466 198.366 32.2018 201.21 31.0606C203.159 30.0259 205.796 30.2042 208.068 30.1587C208.28 30.0941 208.495 30.0683 208.708 30.0725H208.707ZM192.139 42.8828C193.02 43.6994 193.538 45.0655 194.461 45.95C195.242 46.8358 196.275 47.5173 196.913 48.5172C194.846 47.25 192.476 45.4716 192.139 42.8828ZM224.85 49.0648C225.547 49.2074 223.466 49.8308 224.85 49.0648V49.0648ZM223.136 49.2222C223.433 49.2277 223.737 49.2746 223.895 49.4216C222.931 49.6759 221.803 49.6006 221.047 50.3573C220.615 50.8518 219.926 51.19 219.272 51.0086C220.312 50.3098 221.356 49.4277 222.637 49.2425C222.78 49.2296 222.957 49.2185 223.136 49.2222ZM195.786 50.1691C196.401 50.3203 196.069 51.0363 195.786 50.1691V50.1691ZM197.652 51.6598C198.021 51.653 198.289 51.9524 198.537 52.1845C198.119 52.4011 197.66 52.082 197.652 51.6598Z" fill="#669833"/>
<path d="M208.068 30.1594C205.795 30.205 203.159 30.0266 201.21 31.0614C201.31 31.4001 200.755 31.4342 200.59 31.6386C198.404 32.9418 196.242 34.4689 194.92 36.7004C194.782 36.9078 194.376 37.4337 194.279 36.9485C193.361 39.1293 193.335 42.0639 195.146 43.9558C197.406 46.3724 199.916 48.731 202.881 50.2366C203.612 50.1786 204.265 50.5495 204.934 50.7779C207.338 51.6489 210.129 52.0273 212.535 50.9668C214.539 49.8434 216.551 48.5527 218.927 48.4483C219.314 48.3317 218.922 48.7755 218.81 48.9045C220.269 47.7039 222.298 47.7558 224.076 47.5125C227.747 47.4823 231.663 46.9237 234.994 46.0903C234.802 46.1021 234.346 46.2527 234.593 45.9687C236.323 44.8188 238.3 44.1058 240.076 43.0367C241.006 42.512 241.294 41.4509 241.628 40.517C241.76 40.2559 241.902 40.5997 242.005 40.7108C241.828 40.1935 241.536 39.5553 241.011 39.3596C240.758 39.6682 240.363 39.1337 240.409 38.8658C240.347 38.5861 240.078 38.3658 239.818 38.2602C238.047 37.4843 236.057 37.8084 234.186 37.6312C229.591 37.5565 224.884 36.9627 220.734 34.856C219.024 34.1294 217.242 33.4611 215.71 32.5298C215.296 32.6278 215.022 32.3886 214.816 32.0861C213.836 32.0607 212.997 31.4727 212.087 31.2635C211.861 31.6534 211.123 30.9671 211.522 30.9463C211.076 30.8775 210.458 30.7774 210.065 30.4434C210.123 30.5252 210.177 30.6108 210.218 30.7026C209.419 30.5035 208.58 30.4805 207.794 30.242C207.884 30.2127 207.976 30.1857 208.068 30.1594H208.068ZM211.522 30.9463C211.623 30.9619 211.718 30.9765 211.796 30.9912C211.673 30.9555 211.584 30.9431 211.522 30.9463ZM210.16 32.8959C211.041 32.8822 211.921 33.0315 212.76 33.3978C215.571 34.5128 217.247 37.3979 217.783 40.2533C217.521 41.602 218.224 42.9761 217.476 44.2433C216.378 45.9847 214.117 46.3637 212.333 46.8371C213.022 46.731 213.831 47.068 214.418 47.4204C212.221 48.8859 209.422 49.7556 206.807 48.9865C203.149 47.8729 199.653 45.8779 197.235 42.8742C196.148 41.6051 195.476 39.3422 196.833 38.1761C196.378 41.6841 199.355 45.889 203.11 45.4946C202.485 44.6223 201.44 43.9372 201.213 42.8613C201.201 43.0668 201.077 43.2069 200.788 43.0471C199.511 42.3711 198.813 40.9354 198.736 39.5335C198.661 36.3132 201.902 33.6849 205.011 34.0139C205.239 34.0447 205.72 34.1466 205.343 34.383C206.786 33.5429 208.477 32.9222 210.16 32.8958V32.8959ZM201.213 42.8612C201.218 42.7748 201.204 42.6766 201.174 42.584C201.181 42.6797 201.194 42.7717 201.213 42.8612ZM203.03 36.2317C202.321 36.9699 201.061 37.1218 200.672 38.1983C200.087 39.2279 200.64 40.3341 200.934 41.3427C201.403 39.5372 202.178 37.8847 203.03 36.2317ZM222.572 40.2051C223.479 40.2063 224.397 40.4341 225.22 40.8088C225.264 41.0279 224.958 41.0137 224.818 41.0804C222.664 41.5964 220.43 41.8581 218.355 42.6643C217.781 42.9013 217.846 42.0501 217.825 41.668C219.348 41.1921 220.789 40.4285 222.391 40.2075C222.451 40.2057 222.511 40.2051 222.572 40.2051ZM233.445 43.184C233.807 43.2019 233.13 43.5383 233.358 43.1853C233.392 43.1834 233.421 43.1828 233.445 43.184ZM220.403 43.4272C221.432 43.513 219.414 44.1982 220.403 43.4272V43.4272ZM228.954 43.789C229.086 43.792 229.215 43.8118 229.34 43.8643C227.815 44.8945 225.861 45.1636 224.062 45.268C223.811 45.197 223.037 45.392 223.058 44.9686C224.747 44.3704 226.514 44.0562 228.295 43.839C228.509 43.8248 228.735 43.784 228.954 43.789Z" fill="#FEFE66"/>
<path d="M205.343 34.3831C207.541 33.1031 210.318 32.3322 212.76 33.3978C215.571 34.5128 217.247 37.3977 217.783 40.2534C217.521 41.6021 218.223 42.9764 217.476 44.2433C216.378 45.9848 214.117 46.3636 212.333 46.8374C209.286 47.2193 205.625 47.6777 203.11 45.4948C202.433 44.5496 201.262 43.8251 201.173 42.5844C201.023 42.187 201.026 41.7542 200.935 41.3429C201.403 39.5374 202.178 37.8846 203.03 36.2319C203.656 35.4603 204.444 34.8144 205.343 34.3831ZM208.944 38.3491C208.065 38.8838 206.48 39.677 207.034 40.964C207.373 40.3815 207.595 39.6084 208.338 39.4131C209.405 39.1485 210.398 39.785 211.382 40.0929C210.986 39.0945 210.076 38.2689 208.944 38.3491ZM212.003 40.4911C212.099 40.8035 212.267 41.1431 212.551 41.3275C212.411 41.0412 212.339 40.5775 212.003 40.4911ZM206.261 42.5867C206.312 42.8822 206.629 43.3135 206.903 42.9501C206.74 42.7572 206.484 42.6832 206.261 42.5867Z" fill="#CC9934"/>
</g>
<defs>
<clipPath id="clip0">
<rect width="67.6899" height="37.5039" fill="white" transform="translate(170)"/>
</clipPath>
<clipPath id="clip1">
<rect width="54.1214" height="31.5581" fill="white" transform="translate(190.276 27.4419)"/>
</clipPath>
</defs>
</svg>
